<?xml version="1.0" encoding="UTF-8" standalone="no"?>
<!-- Created with Inkscape (http://www.inkscape.org/) -->

<svg
   version="1.1"
   id="svg1"
   width="2706.667"
   height="560"
   viewBox="0 0 2706.667 560"
   sodipodi:docname="pagesonic_full_logo_liquid.svg"
   inkscape:version="1.4.2 (ebf0e940d0, 2025-05-08)"
   xmlns:inkscape="http://www.inkscape.org/namespaces/inkscape"
   xmlns:sodipodi="http://sodipodi.sourceforge.net/DTD/sodipodi-0.dtd"
   xmlns:xlink="http://www.w3.org/1999/xlink"
   xmlns="http://www.w3.org/2000/svg"
   xmlns:svg="http://www.w3.org/2000/svg">
  <defs
     id="defs1">
    <linearGradient
       id="linearGradient126"
       inkscape:collect="always">
      <stop
         style="stop-color:#000000;stop-opacity:1;"
         offset="0"
         id="stop126" />
      <stop
         style="stop-color:#7d00d6;stop-opacity:1;"
         offset="1"
         id="stop127" />
    </linearGradient>
    <linearGradient
       id="linearGradient124"
       inkscape:collect="always">
      <stop
         style="stop-color:#000000;stop-opacity:1;"
         offset="0"
         id="stop124" />
      <stop
         style="stop-color:#7b00d5;stop-opacity:1;"
         offset="1"
         id="stop125" />
    </linearGradient>
    <filter
       inkscape:menu-tooltip="Bright metallic effect for any color"
       inkscape:menu="Bevels"
       inkscape:label="Bright Metal"
       style="color-interpolation-filters:sRGB"
       id="filter101"
       x="-0.076015953"
       y="-0.090537555"
       width="1.1520319"
       height="1.1810751">
      <feGaussianBlur
         result="result6"
         stdDeviation="8"
         in="SourceGraphic"
         id="feGaussianBlur97" />
      <feComposite
         in2="SourceGraphic"
         in="result6"
         operator="xor"
         result="result10"
         id="feComposite97" />
      <feGaussianBlur
         result="result2"
         stdDeviation="8"
         id="feGaussianBlur98" />
      <feComposite
         in2="SourceGraphic"
         operator="atop"
         in="result10"
         result="result91"
         id="feComposite98" />
      <feComposite
         result="result4"
         in="result2"
         operator="xor"
         in2="result91"
         id="feComposite99" />
      <feGaussianBlur
         in="result4"
         result="result3"
         stdDeviation="4"
         id="feGaussianBlur99" />
      <feSpecularLighting
         result="result5"
         specularExponent="5"
         specularConstant="1.10000002"
         surfaceScale="18"
         id="feSpecularLighting99">
        <feDistantLight
           azimuth="235"
           elevation="55"
           id="feDistantLight99" />
      </feSpecularLighting>
      <feComposite
         in="result3"
         k3="1.1"
         k2="0.5"
         operator="arithmetic"
         result="result7"
         in2="result5"
         k1="0.5"
         id="feComposite100"
         k4="0" />
      <feGaussianBlur
         in="result7"
         result="result8"
         stdDeviation="1"
         id="feGaussianBlur100" />
      <feComposite
         in="result8"
         operator="atop"
         in2="SourceGraphic"
         result="result9"
         id="feComposite101" />
    </filter>
    <filter
       style="color-interpolation-filters:sRGB;"
       inkscape:label="Drop Shadow"
       id="filter14"
       x="-0.041930382"
       y="-0.20635476"
       width="1.0901958"
       height="1.4336366">
      <feFlood
         result="flood"
         in="SourceGraphic"
         flood-opacity="0.498039"
         flood-color="rgb(251,0,243)"
         id="feFlood13" />
      <feGaussianBlur
         result="blur"
         in="SourceGraphic"
         stdDeviation="11.969982"
         id="feGaussianBlur13" />
      <feOffset
         result="offset"
         in="blur"
         dx="6.000000"
         dy="4.027381"
         id="feOffset13" />
      <feComposite
         result="comp1"
         operator="in"
         in="flood"
         in2="offset"
         id="feComposite13" />
      <feComposite
         result="fbSourceGraphic"
         operator="over"
         in="SourceGraphic"
         in2="comp1"
         id="feComposite14" />
      <feColorMatrix
         result="fbSourceGraphicAlpha"
         in="fbSourceGraphic"
         values="0 0 0 -1 0 0 0 0 -1 0 0 0 0 -1 0 0 0 0 1 0"
         id="feColorMatrix23" />
      <feFlood
         id="feFlood23"
         result="flood"
         in="fbSourceGraphic"
         flood-opacity="0.498039"
         flood-color="rgb(1,255,244)" />
      <feGaussianBlur
         id="feGaussianBlur23"
         result="blur"
         in="fbSourceGraphic"
         stdDeviation="20.915504" />
      <feOffset
         id="feOffset23"
         result="offset"
         in="blur"
         dx="6.000000"
         dy="4.027381" />
      <feComposite
         id="feComposite23"
         result="comp1"
         operator="in"
         in="flood"
         in2="offset" />
      <feComposite
         id="feComposite24"
         result="comp2"
         operator="over"
         in="fbSourceGraphic"
         in2="comp1" />
    </filter>
    <filter
       style="color-interpolation-filters:sRGB;"
       inkscape:label="Drop Shadow"
       id="filter53"
       x="-0.075710487"
       y="-0.090173735"
       width="1.16952"
       height="1.1948169">
      <feFlood
         result="flood"
         in="SourceGraphic"
         flood-opacity="0.498039"
         flood-color="rgb(251,0,244)"
         id="feFlood50" />
      <feGaussianBlur
         result="blur"
         in="SourceGraphic"
         stdDeviation="0.00010819541"
         id="feGaussianBlur50" />
      <feOffset
         result="offset"
         in="blur"
         dx="6.000000"
         dy="4.027381"
         id="feOffset50" />
      <feComposite
         result="comp1"
         operator="in"
         in="flood"
         in2="offset"
         id="feComposite50" />
      <feComposite
         result="fbSourceGraphic"
         operator="over"
         in="SourceGraphic"
         in2="comp1"
         id="feComposite51" />
      <feColorMatrix
         result="fbSourceGraphicAlpha"
         in="fbSourceGraphic"
         values="0 0 0 -1 0 0 0 0 -1 0 0 0 0 -1 0 0 0 0 1 0"
         id="feColorMatrix51" />
      <feFlood
         id="feFlood51"
         result="flood"
         in="fbSourceGraphic"
         flood-opacity="0.498039"
         flood-color="rgb(1,255,244)" />
      <feGaussianBlur
         id="feGaussianBlur51"
         result="blur"
         in="fbSourceGraphic"
         stdDeviation="20.915504" />
      <feOffset
         id="feOffset51"
         result="offset"
         in="blur"
         dx="6.000000"
         dy="4.027381" />
      <feComposite
         id="feComposite52"
         result="comp1"
         operator="in"
         in="flood"
         in2="offset" />
      <feComposite
         id="feComposite53"
         result="comp2"
         operator="over"
         in="fbSourceGraphic"
         in2="comp1" />
    </filter>
    <filter
       style="color-interpolation-filters:sRGB"
       x="-0.022253815"
       width="1.0445076"
       y="-0.026505041"
       height="1.0530101"
       inkscape:menu="Non-Realistic 3D Shaders"
       inkscape:menu-tooltip="Satiny glass effect"
       inkscape:label="Frosted Glass"
       id="filter111">
      <feGaussianBlur
         in="SourceGraphic"
         result="result8"
         stdDeviation="6.1477898316062181"
         id="feGaussianBlur105" />
      <feComposite
         result="result18"
         operator="xor"
         in2="result8"
         in="SourceGraphic"
         id="feComposite105" />
      <feComposite
         in2="result18"
         result="result16"
         operator="arithmetic"
         k2="0.5"
         k1="1"
         in="result8"
         id="feComposite106" />
      <feComposite
         in="result16"
         operator="atop"
         result="result6"
         in2="result8"
         id="feComposite107" />
      <feOffset
         in="result6"
         result="result17"
         id="feOffset107" />
      <feDisplacementMap
         result="result4"
         scale="100"
         yChannelSelector="A"
         xChannelSelector="A"
         in="result17"
         in2="result16"
         id="feDisplacementMap107" />
      <feComposite
         k3="1"
         in="result17"
         operator="arithmetic"
         result="result2"
         in2="result4"
         id="feComposite108" />
      <feComposite
         operator="out"
         in="result2"
         result="fbSourceGraphic"
         in2="result17"
         id="feComposite109" />
      <feComposite
         result="result14"
         operator="over"
         in2="fbSourceGraphic"
         in="fbSourceGraphic"
         id="feComposite110" />
      <feComposite
         in="result14"
         operator="in"
         in2="SourceGraphic"
         result="result15"
         id="feComposite111" />
    </filter>
    <filter
       style="color-interpolation-filters:sRGB"
       x="-0.011412136"
       width="1.0228243"
       y="-0.056163297"
       height="1.1123266"
       inkscape:menu="Non-Realistic 3D Shaders"
       inkscape:menu-tooltip="Satiny glass effect"
       inkscape:label="Frosted Glass"
       id="filter124">
      <feGaussianBlur
         in="SourceGraphic"
         result="result8"
         stdDeviation="8.7987669"
         id="feGaussianBlur118" />
      <feComposite
         result="result18"
         operator="xor"
         in2="result8"
         in="SourceGraphic"
         id="feComposite118" />
      <feComposite
         in2="result18"
         result="result16"
         operator="arithmetic"
         k2="0.5"
         k1="1"
         in="result8"
         id="feComposite119" />
      <feComposite
         in="result16"
         operator="atop"
         result="result6"
         in2="result8"
         id="feComposite120" />
      <feOffset
         in="result6"
         result="result17"
         id="feOffset120" />
      <feDisplacementMap
         result="result4"
         scale="100"
         yChannelSelector="A"
         xChannelSelector="A"
         in="result17"
         in2="result16"
         id="feDisplacementMap120" />
      <feComposite
         k3="1"
         in="result17"
         operator="arithmetic"
         result="result2"
         in2="result4"
         id="feComposite121" />
      <feComposite
         operator="out"
         in="result2"
         result="fbSourceGraphic"
         in2="result17"
         id="feComposite122" />
      <feComposite
         result="result14"
         operator="over"
         in2="fbSourceGraphic"
         in="fbSourceGraphic"
         id="feComposite123" />
      <feComposite
         in="result14"
         operator="in"
         in2="SourceGraphic"
         result="result15"
         id="feComposite124" />
    </filter>
    <linearGradient
       inkscape:collect="always"
       xlink:href="#linearGradient124"
       id="linearGradient125"
       x1="328.61011"
       y1="231.88002"
       x2="656.54517"
       y2="410.47919"
       gradientUnits="userSpaceOnUse" />
    <linearGradient
       inkscape:collect="always"
       xlink:href="#linearGradient126"
       id="linearGradient127"
       x1="879.05609"
       y1="267.63828"
       x2="505.7002"
       y2="264.97543"
       gradientUnits="userSpaceOnUse" />
    <filter
       style="color-interpolation-filters:sRGB"
       x="-0.035942456"
       width="1.0718849"
       y="-0.093073879"
       height="1.1861478"
       inkscape:menu="Non-Realistic 3D Shaders"
       inkscape:menu-tooltip="Satiny glass effect"
       inkscape:label="Frosted Glass"
       id="filter140">
      <feGaussianBlur
         in="SourceGraphic"
         result="result8"
         stdDeviation="8.7987669"
         id="feGaussianBlur134" />
      <feComposite
         result="result18"
         operator="xor"
         in2="result8"
         in="SourceGraphic"
         id="feComposite134" />
      <feComposite
         in2="result18"
         result="result16"
         operator="arithmetic"
         k2="0.5"
         k1="1"
         in="result8"
         id="feComposite135" />
      <feComposite
         in="result16"
         operator="atop"
         result="result6"
         in2="result8"
         id="feComposite136" />
      <feOffset
         in="result6"
         result="result17"
         id="feOffset136" />
      <feDisplacementMap
         result="result4"
         scale="100"
         yChannelSelector="A"
         xChannelSelector="A"
         in="result17"
         in2="result16"
         id="feDisplacementMap136" />
      <feComposite
         k3="1"
         in="result17"
         operator="arithmetic"
         result="result2"
         in2="result4"
         id="feComposite137" />
      <feComposite
         operator="out"
         in="result2"
         result="fbSourceGraphic"
         in2="result17"
         id="feComposite138" />
      <feComposite
         result="result14"
         operator="over"
         in2="fbSourceGraphic"
         in="fbSourceGraphic"
         id="feComposite139" />
      <feComposite
         in="result14"
         operator="in"
         in2="SourceGraphic"
         result="result15"
         id="feComposite140" />
    </filter>
  </defs>
  <sodipodi:namedview
     id="namedview1"
     pagecolor="#ffffff"
     bordercolor="#000000"
     borderopacity="0.25"
     inkscape:showpageshadow="2"
     inkscape:pageopacity="0.0"
     inkscape:pagecheckerboard="0"
     inkscape:deskcolor="#d1d1d1"
     inkscape:zoom="0.39707283"
     inkscape:cx="1333.5085"
     inkscape:cy="717.75246"
     inkscape:window-width="1908"
     inkscape:window-height="1028"
     inkscape:window-x="0"
     inkscape:window-y="0"
     inkscape:window-maximized="1"
     inkscape:current-layer="g1" />
  <g
     inkscape:groupmode="layer"
     inkscape:label="Image"
     id="g1">
    <path
       style="opacity:1;mix-blend-mode:color-burn;fill:#7d00d6;fill-opacity:1;stroke-width:4.8076"
       d="m 1864.4757,459.44124 c -3.3615,-2.61268 -5.2178,-10.65927 -12.526,-54.29987 -2.4857,-14.84311 -4.9301,-26.62409 -5.432,-26.17986 -0.5018,0.44417 -0.6276,-0.25545 -0.2796,-1.55475 0.3792,-1.41592 0.055,-2.37179 -0.8093,-2.38577 -0.9868,-0.0172 -1.0665,-0.37626 -0.2523,-1.14169 0.8446,-0.79388 0.243,-6.52944 -2.0725,-19.76602 -3.9692,-22.68733 -5.1702,-23.63208 -10.1951,-8.01928 -3.3624,10.87444 -2.0063,6.54059 -7.7179,16.25788 -3.1729,5.39822 -5.2462,4.98408 -54.8505,5.31778 -6.0664,0.0408 -53.7517,0.48153 -55.591,-0.43677 -7.2047,-3.59697 -6.8889,-2.2707 -19.7099,-82.7628 -2.6758,-16.7995 -3.5501,-20.55049 -4.7902,-20.55049 -0.4581,0 -1.081,2.22627 -1.3841,4.94734 -0.3033,2.72102 -2.0427,14.88006 -3.8656,27.02004 -3.5416,23.58754 -7.9441,55.21213 -9.9979,71.81946 -2.4426,14.27174 -4.0319,28.60812 -6.0332,43.03299 -3.983,28.31655 -6.3037,34.17952 -13.5691,34.28026 -7.9263,0.10988 -10.4449,-3.37516 -18.8812,-43.76349 -4.0476,-15.23271 -7.3264,-32.03666 -10.6962,-46.06595 -1.3112,-5.22236 -2.4803,-7.54681 -3.7956,-7.54681 -6.5348,0 -11.4135,14.7235 -16.399,27.87433 -3.9667,10.46367 -8.0011,19.9317 -12.991,20.19529 -3.671,0.19392 -8.5961,-8.36651 -13.6291,-18.41102 -7.8277,-15.62216 -15.9165,-34.83421 -19.954,-30.28415 -3.8233,4.30865 -8.9225,32.00036 -11.6622,46.86936 -4.6308,25.13234 -6.9716,57.91368 -11.7785,68.76866 -3.7248,8.41162 -22.8623,23.61055 -15.985,20.24934 7.0845,-3.46247 -824.28171,-12.64191 -867.90831,-11.81687 -5.74862,0.10872 -19.01957,-16.42213 0.30652,-16.31881 61.9193,0.33103 844.88769,5.51568 852.51959,1.16852 13.8398,-7.8832 17.5252,-26.90098 21.1471,-44.50443 3.572,-17.36093 5.1412,-33.60811 8.0277,-45.05539 3.3506,-13.28804 14.3018,-58.94796 17.8275,-62.60913 5.8084,-6.03153 11.4046,-3.32843 16.1627,6.19489 8.2487,16.50979 19.2328,46.29208 23.3302,46.90192 5.4627,0.81305 12.4426,-22.49126 15.1733,-30.34037 3.1753,-9.20367 10.6416,-31.39949 13.4659,-33.08956 4.7804,-2.86066 7.7575,-2.6548 11.7259,0.81079 2.7307,2.38471 2.7796,5.74058 6.2698,15.59741 2.1054,5.94592 5.5721,20.72324 13.5353,59.08662 0.9567,4.60962 1.4514,4.99629 1.9243,2.28337 2.7621,-15.84709 3.8965,-29.42826 6.2371,-46.40462 1.7472,-12.9772 3.645,-26.67752 4.2175,-30.44509 0.5724,-3.7676 1.5899,-10.96023 2.2611,-15.98371 0.6711,-5.02341 1.8489,-13.2436 2.6172,-18.26708 0.7682,-5.02341 1.9568,-13.92867 2.6412,-19.78933 0.6844,-5.86068 1.6817,-13.05332 2.2162,-15.98372 0.5345,-2.93032 1.9877,-13.20556 3.2293,-22.83385 2.824,-21.8986 3.3051,-23.66992 7.2162,-26.56654 7.469,-5.53157 14.1355,-1.20233 16.5627,10.75583 0.8828,4.34878 1.605,8.78035 1.605,9.84794 0,1.06755 0.4496,4.0447 0.999,6.61585 0.5494,2.57114 1.5762,8.78495 2.2817,13.80841 0.7055,5.02343 2.5937,16.32618 4.1961,25.11723 1.6024,8.79102 3.1427,18.03871 3.4228,20.55048 0.2802,2.5117 1.715,11.4169 3.1884,19.78931 1.4733,8.37243 4.2514,24.64151 6.1736,36.15358 3.4946,20.931 -1.1112,20.78247 77.6377,18.48012 10.4272,-0.30486 13.3901,2.45088 14.8816,-2.49642 0.8203,-2.72107 2.2835,-7.68742 3.2515,-11.03637 0.968,-3.34899 3.768,-12.25416 6.2223,-19.78936 2.4541,-7.53512 5.0176,-15.41282 5.6965,-17.50591 2.325,-7.16896 5.9965,-13.25469 9.1112,-15.10241 4.1187,-2.44329 10.0733,0.96008 12.2312,6.99064 1.2749,3.5628 5.8912,29.72568 7.8776,44.64594 0.2788,2.09308 1.4532,8.2582 2.6101,13.70031 1.157,5.44203 2.2337,11.26466 2.3928,12.93912 1.2683,13.34944 5.94,32.05744 6.0119,34.61073 0.2352,8.38093 9.4601,-50.94506 9.6251,-54.95111 0.1427,-3.46446 0.6444,-6.29905 1.1147,-6.29905 0.4702,0 0.855,-1.75762 0.855,-3.90575 0,-2.14812 0.4628,-5.14414 1.0285,-6.65774 0.5655,-1.5136 1.9807,-9.86002 3.1446,-18.54758 1.164,-8.68752 2.6158,-18.87806 3.2263,-22.64569 0.6104,-3.76757 1.6433,-10.83252 2.2952,-15.69984 2.1683,-16.18809 8.8531,-22.37083 18.489,-17.10041 4.7081,2.5751 4.7081,2.5751 8.4879,20.35165 2.079,9.77706 5.0237,23.59916 6.5439,30.71567 3.8761,18.14637 4.3455,20.45055 7.1331,35.01192 6.9989,36.56075 6.0571,33.85594 9.3267,26.78633 1.604,-3.4681 4.1776,-8.00242 5.7192,-10.07634 2.803,-3.7708 462.803,-3.7708 552.2661,-3.7708 49.2047,0 25.2082,0.53161 27.3411,1.1817 3.0179,0.91956 4.2718,2.37035 5.6537,6.54094 3.9171,11.82205 -0.6177,18.46389 -13.4257,19.66422 -13.7758,1.29101 -456.7308,2.25879 -509.2455,2.27824 -51.1142,0.0172 -51.1142,0.0172 -52.3876,4.02123 -0.7003,2.20132 -1.0561,4.31345 -0.7906,4.69363 0.2656,0.38032 -0.3146,1.87902 -1.2888,3.33066 -0.9744,1.45169 -3.2791,5.77188 -5.1217,9.60048 -2.2963,4.77148 -4.5782,7.5415 -7.2542,8.8064 -5.2836,2.49732 -12.4227,0.77843 -15.892,-3.82644 -1.5311,-2.03226 -3.1312,-3.88388 -3.5558,-4.11469 -0.4245,-0.23074 -0.7131,-2.13223 -0.6413,-4.22532 0.1104,-3.22143 -13.1947,-80.68154 -17.1603,-71.49181 -1.2822,2.97122 -7.1098,32.67102 -9.6474,49.16588 -1.3952,9.0703 -2.7849,17.06628 -3.088,17.76877 -0.552,1.27893 -1.9785,10.8336 -3.7485,25.10766 -0.5192,4.18618 -1.4416,10.86507 -2.05,14.84201 -0.6084,3.97687 -1.5117,10.142 -2.0073,13.70025 -2.9314,21.04683 -6.5407,28.58767 -13.632,28.48139 -2.2372,-0.0346 -5.3703,-1.07335 -6.9623,-2.31073 z"
       id="path1-6"
       sodipodi:nodetypes="sssscscssssssssssssssssssssssssssssssssssssssssssssssssssssssssssssscssssssssssssssssscsssssssssssssscss"
       inkscape:label="path1-6" />
    <path
       id="path1"
       style="mix-blend-mode:normal;fill:url(#linearGradient125);fill-opacity:1;filter:url(#filter111)"
       d="m 282.00001,557.9755 c -11.73334,0.25153 -23.43334,0.19866 -26,-0.11748 -2.56667,-0.31614 -10.71948,-1.48529 -18.11737,-2.59812 -7.39788,-1.11283 -20.04682,-3.75389 -28.10876,-5.86903 -8.06194,-2.11513 -20.60913,-6.06893 -27.88264,-8.78622 -7.27351,-2.71728 -18.56041,-7.61408 -25.082,-10.88177 -6.52158,-3.26769 -17.11196,-9.19157 -23.53416,-13.16419 -6.42221,-3.97261 -16.98637,-11.33838 -23.47591,-16.36838 -6.48954,-5.03 -16.201202,-13.2349 -21.581466,-18.23312 C 82.837439,476.95898 73.470122,466.82388 67.401443,459.43476 61.332765,452.04564 52.019617,439.4 46.705559,431.33333 41.391501,423.26667 34.625705,411.86667 31.670457,406 28.71521,400.13333 23.657386,388.76699 20.430848,380.74145 17.204311,372.71591 12.803536,359.51591 10.65135,351.40812 8.4991628,343.30032 5.7062265,330.66667 4.4448246,323.33333 2.7611843,313.54526 2.1312428,302.02317 2.0756833,280 c -0.058704,-23.26944 0.4768866,-33.2905 2.3872758,-44.66667 1.3546274,-8.06666 3.8914635,-20.1735 5.6374139,-26.90407 1.74595,-6.73058 5.581271,-18.64505 8.522936,-26.4766 2.941665,-7.83155 8.05912,-19.77458 11.372124,-26.54006 3.313003,-6.76549 10.73487,-19.45103 16.493039,-28.19008 C 52.24664,118.48347 61.757671,105.63333 67.624096,98.666667 73.490522,91.7 83.325002,81.4824 89.478497,75.960888 95.631992,70.439376 103.66667,63.485923 107.33334,60.50877 111,57.531617 118.5,52.089482 124,48.415137 c 5.5,-3.674346 14.95027,-9.482854 21.0006,-12.907796 6.05033,-3.424942 16.31692,-8.56666 22.81465,-11.426038 6.49773,-2.859379 17.44747,-7.088292 24.33274,-9.397584 6.88528,-2.309293 19.11868,-5.6113566 27.18535,-7.3379201 8.06667,-1.7265634 20.41485,-3.8469583 27.44042,-4.7119886 7.14732,-0.8800222 23.10257,-1.3659888 36.22342,-1.1032963 12.89733,0.2582173 23.91194,0.9322891 24.47693,1.4979373 0.56499,0.5656482 -1.93556,8.3656477 -5.55676,17.3333337 -6.58401,16.304882 -6.58401,16.304882 -21.25067,16.479372 -8.06667,0.09597 -19.46667,0.571221 -25.33334,1.056115 -5.86667,0.484894 -16.66667,2.120294 -24,3.634222 -7.33333,1.513929 -19.40313,4.737401 -26.82177,7.163271 -7.41864,2.425871 -19.71864,7.356841 -27.33333,10.957711 -7.6147,3.60087 -19.2449,9.91317 -25.8449,14.027334 -6.6,4.114164 -16.8,11.348848 -22.66667,16.077077 -5.86667,4.728228 -16.3826,14.517203 -23.36874,21.753283 -6.986142,7.23607 -15.542378,16.86903 -19.013858,21.40656 -3.47148,4.53754 -9.411221,13.23754 -13.199424,19.33334 -3.788203,6.09579 -9.52907,16.72426 -12.757482,23.6188 -3.228412,6.89455 -7.892964,18.59455 -10.365671,26 -2.472708,7.40546 -6.139645,21.26446 -8.14875,30.7978 -3.317556,15.74202 -3.65718,19.96511 -3.699347,46 -0.03591,22.17223 0.488449,31.38526 2.314544,40.66666 1.298535,6.6 3.879732,17.65085 5.735992,24.55744 1.856261,6.90658 5.178239,17.10658 7.382172,22.66666 2.203934,5.56008 7.032443,16.10924 10.73002,23.44257 3.697577,7.33333 10.967509,19.63333 16.155405,27.33333 6.635288,9.84826 14.988357,19.54559 28.167169,32.70013 10.80224,10.78234 24.09781,22.486 31.4013,27.64157 6.96667,4.9178 21.06667,13.13096 31.33334,18.25147 10.26667,5.12051 23.81384,11.07863 30.10484,13.24028 6.29099,2.16164 18.29099,5.4573 26.66666,7.32368 8.37568,1.86638 21.81114,4.05345 29.85658,4.86017 8.04544,0.80671 19.60955,1.34694 25.69801,1.20051 6.08846,-0.14642 11.42148,0.0853 11.85114,0.51498 0.42966,0.42966 3.67318,7.86556 7.20782,16.52421 6.36505,15.59222 6.39877,15.75347 3.52078,16.83543 -1.59821,0.60084 -12.50583,1.29822 -24.23916,1.54974 z m 22.46516,-108.67253 c -111.08994,-0.0264 -128.33041,-0.29287 -131.86695,-2.03825 -2.23765,-1.10434 -5.08765,-3.73325 -6.33333,-5.84203 -1.24569,-2.10877 -2.26488,-5.72136 -2.26488,-8.02796 0,-2.3066 0.91015,-5.95387 2.02256,-8.10504 1.11242,-2.15117 3.78262,-4.82137 5.93379,-5.93379 3.41685,-1.76692 20.19127,-2.02257 132.71032,-2.02257 111.66148,0 129.31174,0.2651 132.65194,1.99239 2.11907,1.09581 4.78927,3.32931 5.93379,4.96334 1.14451,1.63403 2.08094,5.26725 2.08094,8.07383 0,2.80658 -0.87357,6.79217 -1.94127,8.85686 -1.06769,2.0647 -4.00837,4.7349 -6.53484,5.93379 -4.15372,1.97107 -16.83074,2.17689 -132.39207,2.14943 z m 24.20151,-62.6363 c -186.26668,0 -186.26668,0 -190.80001,-4.53334 -3.8695,-3.8695 -4.53333,-5.45098 -4.53333,-10.8 0,-5.34902 0.66383,-6.93049 4.53333,-10.8 C 142.4,356 142.4,356 328.66668,356 c 186.26667,0 186.26667,0 190.8,4.53333 3.86951,3.86951 4.53334,5.45098 4.53334,10.8 0,5.34902 -0.66383,6.9305 -4.53334,10.8 -4.53333,4.53334 -4.53333,4.53334 -190.8,4.53334 z m 26,-44.7789 c -1.83334,0.40427 -5.23609,-0.10626 -7.56169,-1.13452 -2.32559,-1.02826 -4.82026,-2.97557 -5.54371,-4.32734 -0.72345,-1.35178 -6.17857,-23.15061 -12.12249,-48.44184 C 323.49487,262.69283 317.99286,239 317.2121,235.33333 c -0.78076,-3.66666 -1.73735,-7.56666 -2.12575,-8.66666 -0.38839,-1.1 -3.26851,8.88799 -6.40024,22.19553 -3.13174,13.30755 -8.28052,35.68897 -11.44173,49.73649 -4.67261,20.76376 -6.35806,26.15137 -9.01116,28.80447 -2.15047,2.15046 -4.77171,3.26351 -7.68563,3.26351 -2.43216,0 -5.88442,-0.66628 -7.67169,-1.48061 -1.78727,-0.81434 -3.96359,-2.81474 -4.83626,-4.44534 -0.87267,-1.63061 -6.23632,-17.43327 -11.91922,-35.11703 -10.33254,-32.1523 -10.33254,-32.1523 -13.26246,-29.22133 -2.91679,2.91784 -3.19406,2.93278 -61.89394,3.33519 -32.43021,0.22231 -61.62785,0.0185 -64.88365,-0.45297 -4.21816,-0.6108 -7.18825,-2.1258 -10.33333,-5.27088 -3.4707,-3.4707 -4.41264,-5.51045 -4.40872,-9.54703 0.003,-2.82334 1.20302,-7.09829 2.66728,-9.4999 1.46426,-2.40162 4.20108,-4.95162 6.08182,-5.66667 2.03886,-0.77517 27.82533,-1.3001 63.86605,-1.3001 60.44654,0 60.44654,0 65.1132,-4.66667 3.99392,-3.99391 5.5596,-4.66666 10.86061,-4.66666 4.6542,0 6.94323,0.74929 9.20812,3.01418 1.91269,1.91269 5.32884,10.31774 9.34812,23 3.48366,10.9922 6.83015,21.48582 7.43664,23.31915 0.80197,2.42422 1.3025,2.78786 1.83525,1.33333 0.40289,-1.1 5.95551,-23.9 12.33916,-50.66666 6.38366,-26.76667 12.43008,-50.29888 13.43651,-52.29381 1.00642,-1.99493 2.98421,-4.24493 4.39507,-5 1.41087,-0.75507 4.62375,-1.37286 7.13973,-1.37286 2.58949,0 6.07904,1.18347 8.04173,2.72731 1.90697,1.50003 4.0898,4.95003 4.85075,7.66667 0.76094,2.71664 6.53059,27.73833 12.82143,55.60374 6.29084,27.86542 11.68892,50.91542 11.99572,51.22223 0.30681,0.3068 0.55783,-0.76886 0.55783,-2.39037 0,-1.62151 0.90421,-6.67151 2.00934,-11.22223 1.10513,-4.55071 6.52322,-28.05693 12.04018,-52.23604 5.51697,-24.17912 10.89151,-45.27557 11.94344,-46.88101 1.05192,-1.60545 3.98239,-3.60208 6.51214,-4.43698 3.66386,-1.20918 5.55034,-1.12073 9.27324,0.4348 2.57053,1.07404 5.37379,3.26095 6.22948,4.85981 0.85568,1.59886 3.03197,8.99965 4.83619,16.44621 1.80423,7.44656 7.15242,30.39725 11.88487,51.00154 4.73245,20.60428 8.62551,38.00428 8.65124,38.66666 0.0257,0.66238 3.34438,-8.99567 7.37477,-21.46234 4.03039,-12.46667 7.97526,-23.95039 8.76637,-25.51939 0.79111,-1.569 2.9007,-3.519 4.68797,-4.33333 1.78727,-0.81434 4.75115,-1.48061 6.58639,-1.48061 1.83525,0 5.08923,0.90621 7.23107,2.0138 2.14185,1.10759 4.53316,3.20759 5.31404,4.66666 1.38382,2.58569 2.88469,2.65287 59.27056,2.65287 57.85079,0 57.85079,0 61.91408,3.41903 2.23481,1.88047 4.64484,5.52523 5.35562,8.09947 0.71078,2.57423 0.97393,5.68567 0.58477,6.9143 -0.38915,1.22862 -1.38193,3.63505 -2.20617,5.34762 -0.82424,1.71256 -3.31983,4.10574 -5.54576,5.31817 -3.2426,1.76619 -8.68571,2.27453 -27.38049,2.55712 -12.83333,0.19399 -39.47397,-0.0398 -59.20141,-0.51958 -32.17987,-0.78259 -36.11709,-1.1213 -38.28971,-3.29392 -2.33995,-2.33995 -2.60299,-1.83846 -7.79859,14.86808 -2.95733,9.50934 -7.79633,25.06926 -10.75334,34.57759 -3.82465,12.29826 -6.21924,17.87824 -8.29668,19.33334 -1.60616,1.12499 -5.23294,2.04545 -8.05951,2.04545 -3.83839,0 -6.07464,-0.93542 -8.8348,-3.69558 -3.05093,-3.05093 -4.56685,-7.29561 -8.6903,-24.33334 -2.7471,-11.35076 -7.90059,-33.1504 -11.45219,-48.44364 -3.55161,-15.29323 -6.64482,-27.99228 -6.8738,-28.2201 -0.22899,-0.22781 -5.71979,22.78484 -12.20178,51.13922 -6.48199,28.35439 -12.38553,53.52469 -13.11899,55.934 -0.73345,2.40931 -2.63,5.21867 -4.21456,6.24303 -1.58455,1.02437 -4.38101,2.19325 -6.21434,2.59751 z M 173.06622,325.24882 c -28.08642,-0.0465 -52.26622,-0.58087 -53.73288,-1.18752 -1.46667,-0.60666 -4.06585,-2.60965 -5.77597,-4.4511 -1.71011,-1.84145 -3.39162,-5.65706 -3.73669,-8.47914 -0.45239,-3.69974 0.14415,-6.36224 2.13849,-9.54463 1.52124,-2.42746 4.89701,-5.304 7.50171,-6.39231 3.96609,-1.65714 13.00898,-1.91499 55.63747,-1.58644 46.03911,0.35484 51.2323,0.61701 54.36282,2.74435 1.90364,1.29362 4.15364,3.87185 5,5.7294 0.84636,1.85756 1.53884,5.17894 1.53884,7.38085 0,2.20192 -0.91016,5.76353 -2.02257,7.9147 -1.11242,2.15117 -3.78262,4.82137 -5.93379,5.93378 -3.30526,1.70922 -11.82285,2.00948 -54.97743,1.93806 z m 344.04506,-0.24681 c -30.53094,0.28093 -37.10476,0.004 -40.51305,-1.70492 -2.23765,-1.12214 -5.08765,-3.76562 -6.33333,-5.8744 -1.24569,-2.10877 -2.26489,-5.72136 -2.26489,-8.02796 0,-2.3066 0.87357,-5.88312 1.94127,-7.94782 1.0677,-2.06469 4.00837,-4.7349 6.53484,-5.93378 3.88488,-1.8435 9.93181,-2.1798 39.19489,-2.1798 33.74689,0 34.71202,0.0746 39.08448,3.02121 2.50393,1.68739 5.31006,5.19381 6.35618,7.94239 1.03016,2.70665 1.48888,6.45174 1.01937,8.32241 -0.46951,1.87068 -2.591,5.3466 -4.71441,7.72428 -3.86075,4.32305 -3.86075,4.32305 -40.30535,4.65839 z M 207.12762,201.27995 c -49.10877,-0.0448 -59.04484,-0.3702 -62.11085,-2.0338 -2.00745,-1.08923 -4.55745,-3.73541 -5.66667,-5.8804 -1.10922,-2.145 -2.01676,-6.08979 -2.01676,-8.7662 0,-3.75635 1.03394,-5.90016 4.53333,-9.39955 4.53333,-4.53333 4.53333,-4.53333 65.03666,-4.53333 52.66869,0 60.88804,0.26946 63.47428,2.08094 1.63403,1.14451 3.86753,3.81472 4.96335,5.93378 1.09581,2.11907 1.99238,5.44007 1.99238,7.38001 0,1.93993 -0.98132,5.1884 -2.18072,7.21882 -1.1994,2.03042 -3.84197,4.67299 -5.87239,5.87239 -3.27023,1.93177 -10.36554,2.17463 -62.15261,2.12734 z m 320.64887,-0.37134 c -50.84373,0.13306 -93.34314,-0.0933 -94.44314,-0.50304 -1.1,-0.40974 -3.33259,-1.95685 -4.96131,-3.43801 -1.62872,-1.48117 -3.62525,-4.7048 -4.43673,-7.16363 -1.08959,-3.30146 -1.07447,-5.68555 0.0578,-9.11641 0.84329,-2.5552 3.07074,-5.8552 4.94988,-7.33334 3.35288,-2.63737 5.1608,-2.68672 96.90348,-2.64511 71.41707,0.0324 93.97345,0.42585 95.54805,1.66667 1.13365,0.89334 3.08365,3.10776 4.33333,4.92093 1.2695,1.84193 2.27215,5.80415 2.27215,8.97897 0,4.39417 -0.88187,6.66938 -3.89019,10.03666 -3.89019,4.35437 -3.89019,4.35437 -96.33334,4.59631 z M 419.7095,139.94781 c -188.75169,-0.0426 -231.77501,-0.37538 -235.04283,-1.81783 -2.2,-0.9711 -5.10085,-3.00105 -6.44633,-4.51099 -1.34548,-1.50994 -2.76138,-5.09427 -3.14645,-7.96517 -0.45849,-3.4183 0.0485,-6.66745 1.4689,-9.41425 1.19296,-2.30694 3.92907,-5.10459 6.08024,-6.217 C 186.07538,108.23729 213.92484,108 420.00001,108 c 206.07517,0 233.92464,0.23729 237.37699,2.02257 2.15117,1.11241 4.88728,3.91006 6.08024,6.217 1.42042,2.7468 1.92739,5.99595 1.4689,9.41425 -0.38507,2.8709 -1.80098,6.45606 -3.14646,7.96702 -1.34548,1.51096 -4.37706,3.56439 -6.73684,4.56318 -3.56666,1.50961 -43.26911,1.80718 -235.33334,1.76379 z" />
    <text
       xml:space="preserve"
       style="font-style:normal;font-variant:normal;font-weight:600;font-stretch:normal;font-size:388px;font-family:'NotoSans Nerd Font';-inkscape-font-specification:'NotoSans Nerd Font, Semi-Bold';font-variant-ligatures:normal;font-variant-caps:normal;font-variant-numeric:normal;font-variant-east-asian:normal;text-align:start;writing-mode:lr-tb;direction:ltr;text-anchor:start;mix-blend-mode:normal;fill:url(#linearGradient127);fill-opacity:1;stroke:#13fbf8;stroke-opacity:0;filter:url(#filter124)"
       id="text106"
       y="448.63208"
       x="605.68805"><tspan
         sodipodi:role="line"
         id="tspan106"
         x="605.68805"
         y="448.63208"
         style="font-style:normal;font-variant:normal;font-weight:600;font-stretch:normal;font-size:388px;font-family:'NotoSans Nerd Font';-inkscape-font-specification:'NotoSans Nerd Font, Semi-Bold';font-variant-ligatures:normal;font-variant-caps:normal;font-variant-numeric:normal;font-variant-east-asian:normal;fill:url(#linearGradient127);fill-opacity:1;stroke:#13fbf8;stroke-opacity:0">PageSonic</tspan></text>
  </g>
</svg>
